<?xml version="1.0" encoding="utf-8"?>
<!-- Generator: Adobe Illustrator 29.4.0, SVG Export Plug-In . SVG Version: 9.03 Build 0)  -->
<svg version="1.1"
	 id="Design" xmlns:sodipodi="http://sodipodi.sourceforge.net/DTD/sodipodi-0.dtd" xmlns:inkscape="http://www.inkscape.org/namespaces/inkscape" xmlns:dc="http://purl.org/dc/elements/1.1/" xmlns:rdf="http://www.w3.org/1999/02/22-rdf-syntax-ns#" xmlns:cc="http://creativecommons.org/ns#" xmlns:svg="http://www.w3.org/2000/svg"
	 xmlns="http://www.w3.org/2000/svg" xmlns:xlink="http://www.w3.org/1999/xlink" x="0px" y="0px" viewBox="0 0 100 100"
	 style="enable-background:new 0 0 100 100;" xml:space="preserve">
<style type="text/css">
	.st0{fill:#FFFFFF;}
</style>
<sodipodi:namedview  bordercolor="#666666" borderopacity="1" gridtolerance="10" guidetolerance="10" id="namedview28" inkscape:current-layer="Design" inkscape:cx="-61.125309" inkscape:cy="-113.47203" inkscape:pageopacity="0" inkscape:pageshadow="2" inkscape:window-height="761" inkscape:window-maximized="1" inkscape:window-width="1440" inkscape:window-x="0" inkscape:window-y="25" inkscape:zoom="0.92451703" objecttolerance="10" pagecolor="#ffffff" showgrid="false">
	</sodipodi:namedview>
<path class="st0" d="M49.9,98.7c-0.3-0.2-0.6-0.5-0.9-0.8c-0.5-0.5-1.1-1-1.7-1.4c-5.2-3.8-11.5-4.7-17.7-5.5
	c-3.2-0.4-6.4-0.9-9.4-1.7C13.8,87.3,8.9,83.5,6.1,78c-3.2-6.2-3.5-14.2-0.9-22c0.9-2.7,2.2-5.3,3.3-7.9c0.8-1.7,1.6-3.5,2.3-5.3
	c2.8-6.7,1.7-14.5-3.1-23.1c-0.5-0.9-1.1-1.7-1.6-2.6c-0.2-0.3-0.3-0.5-0.5-0.8L21.5,1.2c3.4,2.1,6.7,3.5,10,4.1
	c1.5,0.3,3.1,0.4,4.8,0.4c3.9,0,7.8-0.8,11-2.3c0.6-0.3,1.2-0.6,1.7-1c0.4-0.2,0.7-0.4,1-0.6c1.7,1,3.8,2,6.1,2.7
	c2.5,0.8,5,1.1,7.6,1.1c4.4,0,8.6-1.1,12.7-3.2c0.4-0.2,0.7-0.4,1-0.6c0.4-0.3,0.8-0.5,1.2-0.7c3.8,3.8,7.5,7.4,11.3,11.2l0.3,0.3
	c1.2,1.2,2.5,2.4,3.7,3.5c0,0,0.2,0.2,0.2,0.2c-3.3,4.7-9.4,15.4-5.6,25.5c0.8,2,1.7,4,2.6,6c1.1,2.4,2.3,4.8,3.1,7.3
	c2.9,8.1,2.7,16.4-0.6,22.8c-2.8,5.5-7.8,9.4-14.3,11.3c-3,0.9-6.1,1.3-9.5,1.8c-5.8,0.8-11.8,1.6-16.6,4.8
	c-1.3,0.9-2.4,1.8-3.5,2.8L49.9,98.7z"/>
<path d="M83.1,48.7c0.4-0.1,3.1-0.7,3.4-0.6c0.3,0.1,0.4,0.4,0.2,0.7c-0.1,0.2-2.4,0.6-2.8,0.6c-0.2,0-2.1,0.3-2.1-0.1
	C81.7,49,82.9,48.7,83.1,48.7z M30.6,74.8c-1.7,1.4-3.9,2.6-5.5,4c-0.8,0.7-0.3,0.7,0.4,0.8c-0.8,0.8-1.9,1.5-2.8,2.2
	c-0.4,0.7,1,0.3,1.4,0.5c-0.6,0.9-1.5,1.7-2,2.6c-0.1,0.1-0.2,0.5,0,0.4c0.2,0,1.2-0.8,1.5-1c1.1-0.8,3.2-2.2,4.2-3.2
	c0.6-0.7,0-0.7-0.6-0.8c0-0.2,2.6-1.7,2.9-2.1c0.9-0.8-1.4-0.4-1.4-0.6l1.8-1.7c0,0,0.5-0.6,0.5-0.7c0.1-0.1,0-0.3,0-0.5L30.6,74.8z
	 M72.3,44.8c0.1-0.1,0.2-0.1,0.3-0.1c0.6-0.5,1.1-1.1,1.7-1.6c0.1,0.3,0,1.6,0.2,1.6c0.3,0.1,2.1-2.7,2.5-3.1l0.2,0.8
	c0.2,0.1,0.4,0,0.5-0.2c0.8-0.7,2.2-2.6,2.9-3.5c0.3-0.3,1.5-1.9,1.6-2.1c0.1-0.4-0.7,0.1-0.8,0.2c-0.8,0.5-1.5,1.1-2.3,1.6
	c-0.1-0.4,0.2-1-0.2-1.4c-0.2,0-1.2,1.4-1.4,1.6c-0.3,0.4-0.7,0.8-1.1,1.2c-0.2,0,0.1-1-0.3-0.9s-4.1,5.2-4.7,5.9l-0.1,0.4
	C71.6,45.6,72,45,72.3,44.8z M16.8,47.5c1.2,0.5,3,0.8,4.3,1.2c2.3,0.6,1.6,0.4,3.9,0.8c0.4,0.1,0.8,0.2,1.1-0.1
	c-0.3-0.4-0.9-0.6-1.4-0.8c-2.7-1.1-5-1.8-7.9-2C15.5,46.6,15.5,47,16.8,47.5z M40.7,40.1c0.3,0.8,0.6,1.6,0.9,2.5
	c0.5,0.5,0.4-0.3,0.4-0.7c-0.1-3.1-1.8-7.5-3.1-10.5c-0.1-0.3-0.5-1.4-0.8-0.8c-0.1,0.1,0.2,1.2,0.3,1.5
	C39.2,35.7,39.6,36.5,40.7,40.1z M28.2,37.4c-0.5-0.1-0.3,0.5-0.4,0.8c-0.7-0.4-1.7-2.6-2.3-2.9C25,35,25.2,36.5,25,36.7
	c-0.6-0.4-2.2-2.1-2.8-2.1c-0.1,0-0.2,0-0.1,0.1l4.3,5.9c0.6,0.4,0.4-0.8,0.6-0.8c0.7,0.8,1.3,2.2,2,3s0.4-1,0.6-1.4l2.2,2.3
	c0.3,0.3,0.9,0,0.5-0.5C31,41.3,29.6,39.3,28.2,37.4z M64.3,43.1c1.3-3.3,1.5-3.6,2.7-6.9c0.2-0.6,1-2.6,1-3.1
	c0-0.4-0.2-0.5-0.5-0.3c-0.7,1.3-1.3,2.6-1.8,4c-1.1,2.6-1.1,2.5-2.1,5.2C63.3,42.8,62.8,44.8,64.3,43.1z M16.7,60.6l3.7,0.6
	l0.3-0.1l-1-1.2l3.1-0.1c0.6-0.2,0.6-0.5,0-0.7L15.7,58c-0.6,0.3,0,0.6,0.2,1l-3.4-0.5c-0.2,0-0.6,0.1-0.4,0.3
	c0.2,0.4,0.5,0.7,0.8,1c-0.3,0.1-3.6,0.4-3.6,0.6l0.2,0.2l6.9,1C17.4,61.5,16.9,61,16.7,60.6z M23.9,69.2c-2.3,0.6-6.6,2.7-8.7,3.9
	c-0.3,0.2-2.3,1.3-2.3,1.5c0.2,0.2,0.4,0.2,0.6,0.2c3.6-1.6,7.2-3.3,10.9-4.7C25,69.8,24.8,69,23.9,69.2z M53.1,42.9l0.2-3.1l1.2,1
	l0.2-0.3l-0.5-3.7c0.3,0.1,0.7,0.7,0.9,0.3c0.1-0.2-0.1-2.2-0.1-2.6c-0.1-1.1-0.2-3.6-0.5-4.6c0-0.2-0.1-0.3-0.2-0.4
	c-0.2,0-0.7,3.2-0.7,3.5c-0.3-0.1-1.2-1.2-1.4-0.6l0.3,3.6c-0.4-0.2-0.7-0.9-1-0.2l0.9,7C52.6,43.6,52.8,43.6,53.1,42.9z M50.7,52.6
	c-0.1,0.2-1.4,0.1-1.4,0.2c-0.1,0,0,1.1,0,1.5c-0.1,0.3-0.7,1.1-0.7,1.2c0.4,0,0.9,0.1,1.1,0.5c-2,0.4-4.2,1.1-6-0.4l0.7-0.1
	c-0.3-1.3-0.6-0.6-1.4-0.7c-0.4-0.1-0.8-0.3-1-0.6c2.9,0.2,5.2-2.8,8.1-2.2C50.3,51.9,50.9,52.3,50.7,52.6z M47.7,52.9
	c-0.3,0,0.1,1.9-1.6,1.6c-0.3-0.1-0.5-0.4-0.8-0.4c-0.5,1,0.7,1.1,1.5,1.1C48,55.1,49.1,53.6,47.7,52.9z M65,89
	c-0.4,0.1-0.4,1.2,0.3,1C66.1,89.8,65.6,88.8,65,89z M71.1,88.3c-0.3,0.1-0.4,0.7-0.3,0.9c0.1,0.1,0.8,0.1,0.9,0
	C71.9,88.9,71.7,88.1,71.1,88.3z M97,72c-0.1,0.4-0.2,0.9-0.3,1.3l0,0l0,0c-0.1,0.5-0.2,0.9-0.4,1.4l0,0c-0.1,0.2-0.1,0.4-0.2,0.6
	l0,0C96,75.6,96,75.8,95.9,76l0,0c-0.5,1.2-1,2.4-1.7,3.6c0,0,0,0,0,0.1C94.1,79.8,94,80,94,80.1c0,0,0,0.1-0.1,0.1
	c-0.1,0.1-0.2,0.2-0.2,0.4c0,0,0,0,0,0.1c-0.5,0.7-1,1.4-1.5,2l0,0l0,0c-1.2,1.5-2.6,2.8-4.3,3.9l0,0l0,0c0,0,0,0-0.1,0
	c-0.1,0.1-0.3,0.2-0.4,0.3c-0.1,0-0.1,0.1-0.2,0.1c-0.1,0.1-0.2,0.2-0.4,0.2c-0.1,0-0.1,0.1-0.2,0.1c-0.2,0.1-0.3,0.2-0.5,0.3
	c0,0,0,0-0.1,0c-0.2,0.1-0.3,0.2-0.5,0.3c-0.1,0-0.1,0.1-0.2,0.1c-0.1,0.1-0.3,0.1-0.4,0.2c-0.1,0-0.1,0.1-0.2,0.1
	c-0.2,0.1-0.4,0.2-0.6,0.3l0,0c-0.2,0.1-0.4,0.2-0.6,0.3c-0.1,0-0.1,0.1-0.2,0.1c-0.1,0.1-0.3,0.1-0.4,0.2c-0.1,0-0.1,0.1-0.2,0.1
	c-0.2,0.1-0.4,0.2-0.6,0.2l0,0c-0.2,0.1-0.4,0.2-0.6,0.2c-0.1,0-0.1,0-0.2,0.1c-0.2,0.1-0.3,0.1-0.5,0.2c-0.1,0-0.1,0-0.2,0.1
	c-0.2,0.1-0.4,0.1-0.7,0.2c-0.2,0.1-0.4,0.1-0.6,0.2h-0.1c-0.2,0.1-0.4,0.1-0.6,0.2h-0.1c-0.4,0.1-0.9,0.2-1.3,0.3l0,0l0,0
	c-6.6,1.4-13.9,1.5-20,4.1l0,0c-0.1,0.1-0.3,0.1-0.4,0.2l0,0c-0.1,0.1-0.2,0.1-0.4,0.2l0,0c-0.1,0.1-0.2,0.1-0.3,0.2c0,0,0,0-0.1,0
	c-0.1,0.1-0.2,0.1-0.3,0.2h-0.1c-0.1,0.1-0.2,0.1-0.3,0.2c0,0-0.1,0-0.1,0.1c-0.1,0.1-0.2,0.1-0.3,0.2c0,0-0.1,0-0.1,0.1
	c-0.1,0.1-0.2,0.1-0.3,0.2c0,0-0.1,0-0.1,0.1C54.3,96.9,54.2,97,54,97c-0.1,0.1-0.2,0.1-0.3,0.2l0,0c-0.1,0.1-0.2,0.1-0.3,0.2l0,0
	c-1.2,0.9-2.4,2-3.6,2.9c-1.1-0.8-2.1-1.9-3.2-2.7C39,92,28.6,93,19.8,90.5C4.4,85.6-0.7,70.3,4.3,55.7c1.6-4.6,3.9-8.8,5.7-13.2
	c3.1-7.5,0.8-15.4-3-22.2c-0.8-1.4-1.7-2.7-2.5-4L21.1,0.1L21.5,0c3.1,2,6.5,3.6,10.1,4.3c1.5,0.3,3,0.4,4.6,0.4
	c3.6,0,7.4-0.8,10.6-2.2C47.9,2,48.9,1.2,50,0.7c2.1,1.2,4.1,2.2,6.4,2.9c2.4,0.7,4.8,1.1,7.3,1.1c4.2,0,8.3-1.1,12.2-3.1
	c0.9-0.5,1.8-1.2,2.8-1.6l0.4,0.2c4,4,7.9,7.8,11.9,11.7c1.2,1.2,2.5,2.4,3.7,3.5c0.1,0.1,0.8,0.7,0.8,0.9c-5,6.9-9.1,16.7-5.9,25.2
	c1.7,4.4,4.2,8.7,5.8,13.3C97.5,60.6,98.1,66.6,97,72L97,72L97,72z M51.5,96.2c-1.8-0.9-3.3-2.4-4.5-4.5c-4.7-8.2,2-15,9.4-17.6
	c1.6-0.6,4.5-1,5.8-1.7c0.2-0.1,0.3,0,0.2-0.4c-1.4,0-2.8-0.4-4.1-0.9c-1.1-0.4-2.9-1.9-3.6-2c-1-0.2-2.1,0.4-3.1,0.5
	c-3.5,0.3-6.1-1.1-9.4-1.8c-1.6-0.4-6.6-0.4-6.3-3c0.1-0.6,0.6-1.3,1.1-1.5c1.1-0.6,1.8,0,2.8,0c1.3,0.1,2.7,0,4-0.2
	c0.2,0,1-0.1,1-0.3c-2.3-0.8-4.7-1.5-7-2.5c-2.5-1.1-6-2.9-3.8-6.3c1.5-2.4,5.6-1.9,8-2.5c1.8-0.5,3.5-1.6,5.4-1.9
	c2.6-0.4,5.7,0.2,8.2,1.1c0.9,0.3,3.5,1.9,4.1,1.9c2,0.1,4.1-1.4,5.9-1.9c4.2-1.2,6.9,1.1,10.7,2.3c5.4,1.7,11.7,2,14.1,8.2
	c1.5,3.9,0.3,6.9-0.5,10.7c1.7-0.2,3.4-0.1,5.1,0.1c0.3-1.5,0.5-3,0.5-4.6c0.1-3.8-0.6-7.7-2-11.6c-0.8-2.3-1.9-4.5-2.9-6.7
	c-1-2.1-2-4.3-2.9-6.6c-1.6-4.3-1.6-9.1-0.1-14.4c1.3-4.6,3.5-8.5,5.4-11.3c-0.3-0.3-0.6-0.5-0.8-0.8c-0.8-0.8-1.7-1.6-2.5-2.4
	c-3.3-3.3-7.3-7.1-11.2-11c-0.1,0.1-0.3,0.2-0.4,0.3c-0.4,0.2-0.8,0.5-1.2,0.7c-4.2,2.2-8.6,3.3-13.1,3.3c-2.6,0-5.2-0.4-7.8-1.1
	c-2.2-0.6-4-1.5-5.9-2.6c-0.2,0.1-0.5,0.3-0.7,0.4c-0.5,0.3-1.1,0.6-1.7,0.9C44.3,6,40.3,6.9,36.3,6.9c-1.7,0-3.3-0.2-4.9-0.4
	c-3.2-0.6-6.5-1.9-9.7-3.9L7,16.5c0,0,0,0,0,0.1c0.6,0.9,1.2,1.8,1.7,2.7c2.2,3.9,3.7,7.8,4.3,11.4c0.8,4.4,0.4,8.6-1.2,12.4
	c-0.7,1.8-1.6,3.6-2.4,5.4C8.3,51,7,53.7,6.1,56.3c-1.3,3.8-1.9,7.6-1.7,11.3c0.1,3.7,1,7,2.6,10c2.7,5.2,7.4,8.9,13.6,10.7
	c3,0.9,6.1,1.3,9.4,1.8c6.2,0.9,12.6,1.7,18,5.7c0.6,0.5,1.2,1,1.8,1.5c0.1,0.1,0.2,0.2,0.3,0.3c0.1-0.1,0.2-0.1,0.2-0.2
	C50.7,96.9,51.1,96.6,51.5,96.2z M89.6,66.7v-3.2c0-0.4-0.7-2.3-0.9-2.8c-2.5-5.1-10.1-5.4-14.9-7.2c-4.1-1.6-4.7-3-9.5-1.1
	c-0.8,0.3-2.1,0.6-2.1,1.6c0,0.5,3-0.9,3.3-0.6c-0.2,1-1.3,1.1-1.9,1.7c2.6,0,5.4-1.2,7.9-2c0.6,0.6-3.3,2.2-3.6,2.3
	c-0.5,0.2-1.5,0.3-1.9,0.5c-0.5,0.3,0.2,0.8,0.8,0.8c1.3-0.1,2.9-1,4.2-1.3c-0.3,0.8-0.9,1.4-1.8,1.6c0,0.3,0.4,0.2,0.6,0.2
	c2.1-0.2,3.9-1.5,5.9-2.3c0.3,1.2-3.5,2.7-3.5,2.9c0,0.4,1.1,0.1,1.3,0c1-0.2,1.7-0.6,2.6-0.8c0,0.2,0,0.4-0.1,0.7
	c-0.3,0.5-0.8,0.4-0.7,0.9c1-0.1,1.9-0.5,2.7-0.8c1-0.5,1.9-1.4,3-1.3c0.4,0.4-2.1,1.8-2.2,1.9c-0.2,0.2-0.1,0.3-0.1,0.5
	c0.6,0.9,4.7-2.6,2.3,0.5c1.4,0.7,2.1-1,3.3-1c0.2,1-1.2,1.2-0.7,2.1c0.8,0.1,1.3-0.5,2-0.7c0.7,0.5-0.3,0.9-0.6,1.3
	c0.4,0.3,2.3-1,2.5-0.8c0.3,0.8-1.1,1.2-1,1.6c0,0.2,0.4,0.7,0.5,0.7c0.2,0.1,1.3-0.9,0.5,0.6l1.2-0.5c-0.4,0.9-0.6,2.6,0.7,2.5
	C89.5,65.3,89.1,66.6,89.6,66.7z M93.6,76.5c-0.8,0-1.5,0-2.3,0.1c-4.1,0.4-4.6,1.9-7.7,3.7c-5.6,3.4-12.9,2.2-18.3,5.6
	c-0.4,0.2-1.2,0.8-1.3,1.2c1.8-0.9,3.8-1.5,5.7-2.1c-0.5,0.2,0.1,1.3,0.7,0.9c0.2-0.1,0.2-1.1-0.5-0.9c4.7-1.5,10.4-1.9,14.6-4
	c1.2-0.6,2.4-1.5,3.7-2.1c1.5-0.6,3.1-1,4.7-1c0-0.1,0.1-0.2,0.1-0.3C93.3,77.2,93.4,76.8,93.6,76.5z M89.6,80.1
	c-0.2-0.3-1.3-0.1-0.9,0.7C89,81.5,90,80.8,89.6,80.1z M66,86.7c-0.3,0.6,0.7,0.9,0.9,0.7C67.1,87.1,66.6,86.2,66,86.7z M55.8,93.5
	c2.2-1.1,4.6-1.8,7-2.3c-1.6-1.7-0.7-4.6,1.2-6.1c5.5-4.3,16.9-2.7,20.8-7.9c0.7-0.9,1.3-3.4,1-4.4c-0.1-0.4-0.9-0.2-1-0.6
	c-0.2-0.7,0.5-0.7,0.5-0.9c0-0.3-0.9-1.7-1.1-1.9c-0.3-0.2-0.6,0.1-0.8,0c-0.2-0.1-0.2-0.5-0.3-0.7c-0.4-0.4-2.2-0.5-2.8-0.7
	c-0.4-0.1-1-0.5-1.3-0.6s-0.6,0.2-1,0.1c-0.3-0.1-0.2-0.6-0.5-0.8c-0.3-0.3-2.3-0.4-2.4-0.3s0.1,1.1-0.9,1.3
	c-1.2,0.3-1.3-1.2-1.4-1.3c-0.1,0-1.3-0.1-1.4-0.1c-0.2,0.1-0.6,1.1-0.9,1.4c-1.2,1.5-2.7,2.2-4.6,2c-2-0.2-2.6-1.7-4.2-2.6
	c-2.5,1.7-3.1,2.5,0.4,3.1c3.3,0.6,10.1,0.1,12.2,2.9c1.4,1.8,1,4-0.8,5.3c-1.3,1-6.2,2.2-8,2.5c-0.3,0.1-2.4,0.4-2.5,0.3
	c-0.4-0.4,1.1-1,1.4-1.1c2-0.8,7.8-2,8.7-3.7c0.3-0.7,0.3-1.7-0.2-2.2c-0.7-0.8-0.7,0.2-1,0.2c-0.2,0.1-0.6-0.2-0.7-0.2
	c0,0-0.6,0.8-0.6,0.9c-0.1,0.2,0.1,0.9-0.1,1S69.7,76,69.4,76c-0.3,0.1-1,0.6-1.4,0.8c-0.2,0.1-0.6,0.1-0.6,0.1
	c-0.1,0.1,0.8,1.1-0.1,1.4c-0.8,0.2-0.7-0.9-0.8-1c-0.1-0.1-1.7,0.5-1.8,0.5c-0.2,0-0.4-0.3-0.6-0.3c-0.5,0-4,0.9-4.3,1.2
	c-0.1,0.1-0.1,0.5-0.3,0.6c-0.2,0.2-0.6-0.1-0.9,0c-0.3,0.1-1.3,0.8-1.4,1.1c-0.1,0.3,0.2,0.8-0.2,1.2c-0.6,0.5-1.3-0.2-1.6-0.2
	c-0.4,0.1-1,0.7-1.6,0.6c-0.2,0.2,0.7,0.8,0.1,1c-0.9,0.3-0.5-0.4-0.6-0.5c-1.1,0.2-1.6,1.3-2.1,2.2c2.4-0.1,1.2,2.9-0.3,1.7
	c-0.2-0.2-0.2-0.5-0.4-0.5c-0.3,0.6-0.9,2.8-0.5,3.3c0.1,0.1,2.1,0.6,1,1.7c-0.5,0.4-1,0-0.8,0.6c0.3,1.2,1.7,2.7,3.1,3.2
	c0.4-0.2,0.7-0.5,1.1-0.7c-0.3-0.8-0.7-1.7-0.7-2.6c-0.2-3,1.7-6.3,4.2-7.9c0.2-0.1,1.7-1,1.7-0.4c0,0.2-2.3,2.6-2.7,3.1
	C55.4,88.5,54.6,91.5,55.8,93.5z M64.7,73.8c0.2-0.1,1.8-1.1,1.6-1.3c-1.7-0.7-2.6,0.5-4,1.1c-2.1,0.9-4.4,1.2-6.6,2.2
	c-4.2,1.8-8.2,4.8-8.6,9.7l1.3-2.5C52.3,76.3,58.7,76.6,64.7,73.8z M49.7,82.5c-0.7-0.4-1.1,0.7-0.4,0.8
	C49.7,83.5,49.9,82.7,49.7,82.5z M61.2,75.5c-0.6,0.1-0.6,1.1,0.3,0.9C62,76.2,61.6,75.5,61.2,75.5z M52.4,80.2
	c-0.3,0.1-0.4,0.7-0.3,0.9c0.1,0.1,0.8,0.1,0.9,0C53.2,80.8,52.9,80.1,52.4,80.2z M58.3,65.3c-0.3,0.5-1.8,1.7-0.5,1.9
	c2.1,0.4,3.3-2.7,3.4-4.3c0.1-1.6-1.6-2.8-2.4-4c-1.1-1.7-0.7-1.6-2.2-3c-0.2-0.1-1.9-1.7-1.1-1.7c0.2,0,2.3,1.2,2.8,1.4
	c3.5,1.5,7.3,3.5,10.9,4.3c2.6,0.6,5.3,1.3,7.9,1.9c0.5,0.1,1.1,0,1.7,0.1c2.4,0.4,5.3,1.7,7.2,3.2c0.7,0.5,1.1,1.1,1.7,1.7
	c-3-7-11.5-6.1-17.7-7.4c-2.2-0.5-5-1.2-7-2.3c-4.5-2.5-6.6-5.6-12.5-6c-3.8-0.3-5,1.3-8.1,2c-1.8,0.4-6.6,0-7.2,2.3
	c-0.4,1.6,0.9,0.5,1.5,0.3c3.6-1.1,6.4,2,9.5,3.1c1.6,0.6,9.5,2.6,10.9,2.5c0.6-0.1,2.3-1.3,1.9-0.1c-0.9,2.4-3.9,1-5.7,1.1
	c-3.9,0.4-7.4,2.6-11.8,2.4c-0.8,0-4.6-1.2-4.1,0.4c0.3,0.8,4.5,1.1,5.4,1.2c2.3,0.5,4.9,1.7,7.2,1.7c0.2,0,0.4,0.2,0.5-0.2
	c-2.6-0.5-5-1.8-7.7-1.9c0.4-0.7,1.6-0.6,2.3-0.5c2.5,0.2,4.9,1.9,7.5,1.7c0.1-0.5-0.1-0.3-0.4-0.4c-0.5-0.2-1.1-0.3-1.6-0.5
	c-0.2-0.1-0.9-0.5-0.8-0.8c2.5,0.2,5.2,1.8,7.3-0.5c0.3-0.4,1.2-2.1,1.4-2.1C59.6,62.5,58.6,64.9,58.3,65.3z M79.6,63.1
	c-1.3,0.2-0.2,2.1,0.7,1.2C80.7,63.8,80.3,62.9,79.6,63.1z M72.1,62c-0.7,0.2-0.6,1.4,0.1,1.4C73.1,63.4,72.9,61.8,72.1,62z
	 M66.3,67c-1-0.1-2-0.2-3-0.4c1.2,1.6,2.6,2.4,4.5,1.5c1.5-0.7,2.6-3.3,2-4.9c-0.6-1.5-4.4-2.1-5.5-0.8c0.8,0.7,2,0.3,3,0.5
	c0.2,0,0.8,0.2,0.5,0.5c-0.1,0.1-2.2,0.4-2.4,0.4c-0.8,0-1.8-0.9-2.4-0.1c1.1,0.4,2.1,0.5,3.2,0.8l2.4,1.1c-0.8,0.7-2-0.2-2.8-0.3
	c-0.4-0.1-0.8,0.1-1.3,0.1c-0.6-0.1-1.1-0.4-1.7-0.4c0.5,1.4,3.3,1,3.7,2C66.8,67.2,66.5,67,66.3,67z M70.2,61.3
	c0.3-0.5-0.7-1.1-0.9-0.4C69.1,61.6,70,61.5,70.2,61.3z M61.8,61.6c0.2,0.3,1.4,0,1-0.7C62.3,60.3,61.3,60.9,61.8,61.6z M62.2,59.2
	c0.6-0.1,0.7-1.4-0.1-1.2C61.3,58.2,61.6,59.3,62.2,59.2z M89.8,82.2c-1.3,0.4-2.6,0.9-2.7,1c-0.2,0.2-0.1,0.6-0.4,0.7
	c-0.8,0.3-0.5-0.4-0.6-0.5s-3.6,0.6-3.9,0.7c-0.4,0.2-0.5,0.9-1.1,1c-0.8,0.1-0.8-0.6-1.1-0.7c-0.9-0.3-3.7,1.8-4.8,1.9
	c-0.2,1.8-1,0.7-1.7,0.7c-0.5,0-2,0.5-2.7,0.6c-0.4,0.1-1.4,0-1.6,0.3c-0.2,0.2,0.1,0.8-0.5,1c-1.1,0.3-1-0.8-1.2-0.9
	c-0.9-0.2-4,1-4.2,1.9c-0.1,0.4,0.3,0.7,0.7,1c2-0.4,4-0.7,6-0.9c3.3-0.5,6.4-0.9,9.3-1.7c3.2-0.9,6.1-2.4,8.4-4.3
	C88.5,83.5,89.2,82.9,89.8,82.2z M94.8,73c-1.7-0.2-3.4-0.3-5.1-0.3c0,0.7-1.1,2.1-0.4,2.4c0.9,0.4,2.1-2.4,2.6-1.8
	c0.3,0.3-0.7,1.6-0.5,1.8c0.8,0.4,2.5-1.5,2.7-1.4c0.7,0.1-0.2,1.3-0.1,1.4c0.1,0,0.1,0,0.2,0C94.4,74.4,94.6,73.7,94.8,73z
	 M36.9,54.8c0.2,0.2,1,0,0.9-0.6C37.5,53.5,36.3,54.4,36.9,54.8z M77.6,69.9c0.8-0.2,0.4-1.5-0.5-1.2C76.5,68.9,76.9,70.1,77.6,69.9
	z M70,84.9c-0.1,0-0.1,0-0.2,0.1C69.9,84.9,70,84.9,70,84.9z M82,70.8c0.6-0.1,0.8-0.8,0.4-1.2C81.4,68.6,80.5,71,82,70.8z
	 M38.6,79.7c-0.9,2-1.9,4.4-2.6,6.5c-0.2,0.5-0.9,2.5-0.7,2.8c0.1,0.1,0.2,0.2,0.3,0.2c0.6,0,0.9-1.5,1-2c0.8-2.2,2-4.7,2.5-6.9
	c0-0.2,0.3-1.2,0.1-1.3C39,78.7,38.8,79.4,38.6,79.7z M54.1,83.8c-0.3,0.2-0.1,1.3,0.7,1C55.6,84.3,54.7,83.4,54.1,83.8z M25.5,25.4
	v-2.3h-5.6v-2.6h4.8v-2.3h-4.8v-2.5h5.6v-2.3h-8.3v12.2h8.3V25.4z M34.8,25.4h2.9V13.3h-2.5v8.2h-0.1L34,19l-3.3-5.7h-2.9v12.2h2.5
	v-8.2h0.1l1.2,2.4L34.8,25.4z M48.1,25.4h2.2v-6.8h-4.8v2.2h2.3v0.6c0,1.2-1.1,1.8-2.4,1.8c-1.6,0-2.7-0.9-2.7-3v-1.9
	c0-2,1.1-3,2.7-3c1.4,0,2.2,0.8,2.5,1.7l2.2-1.2c-0.9-1.9-2.5-2.8-4.7-2.8c-3.3,0-5.5,2.2-5.5,6.3s2.2,6.2,5,6.2
	c1.8,0,2.9-0.9,3.1-2.1h0.1C48.1,23.4,48.1,25.4,48.1,25.4z M52.9,13.3v7.2c0,3.6,1.3,5.2,4.8,5.2s4.8-1.6,4.8-5.2v-7.2h-2.6v7.5
	c0,1.7-0.6,2.6-2.2,2.6c-1.6,0-2.2-0.9-2.2-2.6v-7.5C55.5,13.3,52.9,13.3,52.9,13.3z M70.3,25.4v-2.1h-1.6v-7.9h1.6v-2.1h-5.8v2.1
	h1.6v7.9h-1.6v2.1H70.3z M82.8,25.4l-4-12.2h-3.3l-4,12.2h2.7l0.9-2.9h4.1l0.9,2.9H82.8z M78.5,20.3h-2.8l1.3-4.6h0.1L78.5,20.3z"/>
</svg>
